<?xml version="1.0" encoding="UTF-8"?>
<svg xmlns="http://www.w3.org/2000/svg" viewBox="0 0 228.42 257.27">
  <defs>
    <style>
      .cls-1 {
        fill: #c22228;
        font-size: 24px;
      }

      .cls-1, .cls-2 {
        font-family: BerkshireSwash-Regular, 'Berkshire Swash';
      }

      .cls-3, .cls-2 {
        fill: #422924;
      }

      .cls-4 {
        fill: #4c302c;
      }

      .cls-5 {
        fill: #7f9e2b;
      }

      .cls-6 {
        fill: #d93f29;
      }

      .cls-7 {
        fill: #6a962a;
      }

      .cls-8 {
        fill: #e59641;
      }

      .cls-2 {
        font-size: 52px;
      }

      .cls-9 {
        fill: #ba3227;
      }

      .cls-10 {
        fill: #e6b640;
      }

      .cls-11 {
        letter-spacing: 0em;
      }
    </style>
  </defs>
  <g id="OBJECTS">
    <g>
      <g>
        <g>
          <path class="cls-3" d="m177.49,168.16c-11.78,0-25.43-4.05-41.75-12.39-15.46-7.91-23.98-15.67-25.32-23.09-.75-4.2,1.02-7.19,2.64-8.96.28-.33,7.61-8.71,16.66-8.71,3.18,0,6.18,1.04,8.92,3.1,2.18,1.64,5.39,4.88,9.45,8.98,11.14,11.25,27.96,28.25,40.12,28.25,1.8,0,3.45-.38,4.91-1.15,8.48-4.42,10.82-9.86,11.29-13.65.59-4.76-1.42-8.53-2.83-9.78-1.5-1.34-4.49-2.79-7.49-2.79-3.61,0-5.98,2.04-7.04,6.07-.48,1.81-.37,3.22.29,4.09.69.89,1.85,1.03,2.48,1.03,1.54,0,3.16-.76,3.85-1.81.43-.66.47-1.37.12-2.17-.19-.44-.1-.95.25-1.29.34-.34.85-.43,1.29-.23.19.09,4.74,2.18,5.7,6.23.55,2.31-.17,4.71-2.14,7.13-1.68,2.08-4.02,3.17-6.75,3.17-5.51,0-11.16-4.54-12.87-10.33-1-3.4-.15-7.25,2.34-10.58,3.18-4.25,8.4-6.9,13.62-6.9,1.09,0,2.17.11,3.23.33,5.95,1.25,11.6,8.22,13.14,16.23,1.69,8.78-2.48,15.89-9.6,21.95-7.17,6.1-15.39,7.26-24.54,7.26Z"/>
          <path class="cls-4" d="m179.73,153.16c-10.72-4.95-22.92-17.26-31.63-26.06-4.06-4.1-7.27-7.34-9.45-8.98-2.74-2.06-5.74-3.1-8.92-3.1-7.23,0-13.34,5.33-15.66,7.66.06-.03,16.62-5.53,23.77,2.2,7.17,7.74,26.3,24.78,41.89,28.29h0Z"/>
        </g>
        <g>
          <path class="cls-3" d="m26.39,160.91c-7.12-6.06-11.29-13.17-9.6-21.95,1.54-8.01,7.19-14.98,13.14-16.23,1.06-.22,2.15-.33,3.23-.33,5.22,0,10.44,2.64,13.62,6.9,2.49,3.32,3.34,7.18,2.34,10.58-1.7,5.79-7.36,10.33-12.87,10.33-2.74,0-5.07-1.1-6.75-3.17-1.96-2.42-2.68-4.82-2.14-7.13.96-4.04,5.5-6.14,5.7-6.23.44-.2.95-.11,1.29.23.34.34.44.85.24,1.29-.35.79-.31,1.51.12,2.17.69,1.05,2.3,1.81,3.85,1.81.63,0,1.79-.13,2.48-1.03.67-.87.77-2.28.29-4.09-1.06-4.03-3.42-6.07-7.03-6.07-3,0-5.99,1.45-7.49,2.79-1.41,1.26-3.42,5.03-2.83,9.78.47,3.78,2.81,9.22,11.29,13.65,1.46.77,3.11,1.15,4.91,1.15,12.16,0,28.99-17,40.12-28.25,4.06-4.1,7.27-7.34,9.46-8.98,2.74-2.06,5.74-3.1,8.92-3.1,9.05,0,16.38,8.38,16.66,8.71,1.62,1.77,3.4,4.76,2.64,8.96-1.33,7.41-9.85,15.18-25.32,23.09-16.31,8.34-29.97,12.39-41.75,12.39-9.15,0-17.37-1.16-24.54-7.26Z"/>
          <path class="cls-4" d="m48.69,153.16c10.72-4.95,22.92-17.26,31.63-26.06,4.06-4.1,7.27-7.34,9.46-8.98,2.74-2.06,5.74-3.1,8.92-3.1,7.23,0,13.34,5.33,15.66,7.66-.06-.03-16.6-5.53-23.76,2.2-7.17,7.74-26.32,24.78-41.91,28.29h0Z"/>
        </g>
      </g>
      <g>
        <g>
          <path class="cls-7" d="m12.17,66.7s-2.74-7.43-6.87-11.84c-4.13-4.41-3.63-6.01-1.29-7.56,2.34-1.55,9.01,5.92,10.71,18.48l-2.55.92Z"/>
          <g>
            <path class="cls-5" d="m15.67,67.82s-9.3.85-6.76-13.1c0,0,11.84,4,6.76,13.1Z"/>
            <path class="cls-5" d="m15.68,67.83s-6.08,6.2-12.67-5.21c0,0,10.8-4.28,12.67,5.21Z"/>
            <path class="cls-5" d="m15.66,67.83s-7.42-4.5,2.19-13.52c0,0,6.63,9.53-2.19,13.52Z"/>
          </g>
          <path class="cls-6" d="m18.15,86.23s-13.23-14.42-8.75-21.75c4.93-8.07,16.86-5.44,23.95,17.7,6.31,20.58,4.42,31.16-6.19,32.72-6.28.92-10.86-7.19-10.94-10.71-.11-4.61,2.09-8.17,2.21-4.38.12,3.79,1.7,9.65,6.35,6.42,4.65-3.23-1.38-13.58-6.63-20Z"/>
          <path class="cls-9" d="m33.35,82.18c-4.22-13.78-10.16-20.28-15.31-21.59,4.26,2.81,8.69,9.16,12.04,20.09,6.31,20.58,4.42,31.16-6.19,32.72-.78.12-1.54.09-2.26-.05,1.6,1.17,3.47,1.85,5.54,1.55,10.61-1.56,12.49-12.14,6.19-32.72Z"/>
        </g>
        <g>
          <path class="cls-7" d="m216.25,66.7s2.74-7.43,6.87-11.84c4.13-4.41,3.63-6.01,1.29-7.56-2.34-1.55-9.01,5.92-10.71,18.48l2.55.92Z"/>
          <g>
            <path class="cls-5" d="m212.75,67.82s9.3.85,6.76-13.1c0,0-11.84,4-6.76,13.1Z"/>
            <path class="cls-5" d="m212.74,67.83s6.08,6.2,12.67-5.21c0,0-10.79-4.28-12.67,5.21Z"/>
            <path class="cls-5" d="m212.76,67.83s7.42-4.5-2.19-13.52c0,0-6.63,9.53,2.19,13.52Z"/>
          </g>
          <path class="cls-6" d="m210.28,86.23s13.23-14.42,8.75-21.75c-4.93-8.07-16.86-5.44-23.95,17.7-6.31,20.58-4.42,31.16,6.19,32.72,6.28.92,10.86-7.19,10.94-10.71.11-4.61-2.09-8.17-2.2-4.38-.12,3.79-1.7,9.65-6.35,6.42-4.65-3.23,1.38-13.58,6.63-20Z"/>
          <path class="cls-9" d="m195.07,82.18c4.22-13.78,10.16-20.28,15.32-21.59-4.26,2.81-8.69,9.16-12.04,20.09-6.31,20.58-4.42,31.16,6.19,32.72.78.12,1.54.09,2.26-.05-1.6,1.17-3.47,1.85-5.54,1.55-10.61-1.56-12.49-12.14-6.19-32.72Z"/>
        </g>
      </g>
      <g>
        <g>
          <rect class="cls-10" x="77.05" y="66.01" width="74.33" height="24.84"/>
          <rect class="cls-8" x="77.05" y="66.01" width="74.33" height="10.62"/>
          <g>
            <g>
              <circle class="cls-10" cx="145.62" cy="42.38" r="34.26"/>
              <path class="cls-8" d="m153.6,73.81c-18.92,0-34.26-15.34-34.26-34.26,0-13.4,7.69-24.99,18.9-30.62-15.37,3.37-26.88,17.07-26.88,33.45,0,18.92,15.34,34.26,34.26,34.26,5.52,0,10.74-1.32,15.36-3.64-2.38.52-4.84.81-7.38.81Z"/>
            </g>
            <g>
              <circle class="cls-10" cx="82.8" cy="42.38" r="34.26"/>
              <path class="cls-8" d="m74.82,73.81c18.92,0,34.26-15.34,34.26-34.26,0-13.4-7.69-24.99-18.9-30.62,15.37,3.37,26.88,17.07,26.88,33.45,0,18.92-15.34,34.26-34.26,34.26-5.52,0-10.74-1.32-15.36-3.64,2.38.52,4.84.81,7.38.81Z"/>
            </g>
          </g>
          <g>
            <path class="cls-10" d="m148.47,34.26c0,18.92-15.34,34.26-34.26,34.26s-34.26-15.34-34.26-34.26S95.29,0,114.21,0s34.26,15.34,34.26,34.26Z"/>
            <path class="cls-8" d="m114.21,60.02c-17.48,0-31.89-13.1-33.99-30.01-.17,1.39-.27,2.81-.27,4.25,0,18.92,15.34,34.26,34.26,34.26s34.26-15.34,34.26-34.26c0-1.44-.1-2.86-.27-4.25-2.09,16.91-16.5,30.01-33.99,30.01Z"/>
          </g>
        </g>
        <g>
          <path class="cls-6" d="m42.92,84.43v3.42c0,13.3,7.79,21.09,17.32,21.09h107.94c9.53,0,17.32-7.79,17.32-21.09v-3.42H42.92Z"/>
          <g>
            <g>
              <path class="cls-5" d="m184.55,95.36c.2-.75.37-1.52.51-2.32H43.36c.14.8.31,1.57.51,2.32h140.68Z"/>
              <path class="cls-5" d="m181.63,101.8c.5-.72.96-1.49,1.37-2.32H45.42c.41.82.87,1.59,1.37,2.32h134.85Z"/>
            </g>
            <g>
              <polygon class="cls-5" points="58.78 89.73 66.7 84.43 50.86 84.43 58.78 89.73"/>
              <polygon class="cls-5" points="74.62 89.73 82.54 84.43 66.7 84.43 74.62 89.73"/>
              <polygon class="cls-5" points="90.46 89.73 98.38 84.43 82.54 84.43 90.46 89.73"/>
              <polygon class="cls-5" points="106.3 89.73 114.22 84.43 98.38 84.43 106.3 89.73"/>
              <polygon class="cls-5" points="122.14 89.73 130.06 84.43 114.22 84.43 122.14 89.73"/>
              <polygon class="cls-5" points="137.98 89.73 145.9 84.43 130.06 84.43 137.98 89.73"/>
              <polygon class="cls-5" points="153.82 89.73 161.74 84.43 145.9 84.43 153.82 89.73"/>
              <polygon class="cls-5" points="169.66 89.73 177.58 84.43 161.74 84.43 169.66 89.73"/>
              <polygon class="cls-5" points="185.5 84.43 177.58 84.43 185.5 89.73 185.5 84.43"/>
              <polygon class="cls-5" points="42.92 84.43 50.84 84.43 42.92 89.73 42.92 84.43"/>
            </g>
          </g>
        </g>
      </g>
    </g>
  </g>
  <g id="TEXTS">
    <g>
      <text class="cls-2" transform="translate(33.95 214.86)"><tspan x="0" y="0">Zaayka</tspan></text>
      <text class="cls-1" transform="translate(0 250.98)"><tspan x="0" y="0">Khu</tspan><tspan class="cls-11" x="45.75" y="0">s</tspan><tspan x="54.61" y="0">hiyon ki D</tspan><tspan class="cls-11" x="160.91" y="0">e</tspan><tspan x="171.79" y="0">li</tspan><tspan class="cls-11" x="185.05" y="0">v</tspan><tspan x="196.27" y="0">ery</tspan></text>
    </g>
  </g>
</svg>